# xmcd
#
# Track frame offsets:
#	150
#	13614
#	25184
#	40637
#	56064
#	71209
#	86648
#	101785
#	115453
#	132148
#	148567
#	164490
#	184680
#	198324
#	212205
#	226468
#	247210
#	260425
#	276297
#	292318
#
# Disc length: 4154 seconds
#
# Revision: 0
# Processed by: cddbd v1.4PL0 Copyright (c) Steve Scherf et al.
# Submitted via: EasyCDDAExtractor 4.6.9.1
#
DISCID=3b103814
DTITLE=Emmylou Harris - Singin' With Emmylou - Vol 2
DYEAR=2003
DGENRE=Country
TTITLE0=As Long as I Live (w-Johnny Cash)
TTITLE1=The Last Time (Geh Nicht Allein)  (w-Johnny Cash)
TTITLE2=My Baby's Gone  (w-The Kendalls)
TTITLE3=High Lonesome  (w-Woo¤ys)
TTITLE4=Greenville  (w-Luncinda Williams)
TTITLE5=Billy Joe Siaver)             
TTITLE6=I'm Going Crazy in ¾ Time (w-Billy Joe Shaver)
TTITLE7=Dreamin' My Dreams  (w-Mike Auldridge)
TTITLE8=Only a Woman's Heart  (w-Mary Black)
TTITLE9=Appalachian Rain (w-Matraca Berg)
TTITLE10=Too May Tears Too Late (w-Bobby Cryner)
TTITLE11=Beyond The Blue (w-Patty Griffin)
TTITLE12=I'll Take My Time Going Home (w-Barry and Holly Tashian)
TTITLE13=Flower In The Desert  (w-Jesse and Jim McReynolds)
TTITLE14=Kentucky Waltz (w-Bill Monroe)
TTITLE15=Billy Tyler (w-Albert Lee)
TTITLE16=Beneath a Painted Sky (w-Tammy Wynette)
TTITLE17=When You Get A Little Lonely (w-Nicolette Larson)
TTITLE18=Stormy Weather (w-Tanya Tucker)
TTITLE19=Sweet Bed of Feeling (w-Rita Coolidge-Priscilla Jones)
EXTD=
EXTT0=
EXTT1=
EXTT2=
EXTT3=
EXTT4=
EXTT5=
EXTT6=
EXTT7=
EXTT8=
EXTT9=
EXTT10=
EXTT11=
EXTT12=
EXTT13=
EXTT14=
EXTT15=
EXTT16=
EXTT17=
EXTT18=
EXTT19=
PLAYORDER=
